<svg width="24" height="24" viewBox="0 0 24 24" fill="none" xmlns="http://www.w3.org/2000/svg">
<path fill-rule="evenodd" clip-rule="evenodd" d="M8.75024 11.9999C8.75024 13.7919 10.2082 15.2499 12.0002 15.2499C13.7922 15.2499 15.2502 13.7919 15.2502 11.9999C15.2502 10.2079 13.7922 8.74988 12.0002 8.74988C10.2082 8.74988 8.75024 10.2079 8.75024 11.9999ZM10.2502 11.9999C10.2502 11.0349 11.0352 10.2499 12.0002 10.2499C12.9652 10.2499 13.7502 11.0349 13.7502 11.9999C13.7502 12.9649 12.9652 13.7499 12.0002 13.7499C11.0352 13.7499 10.2502 12.9649 10.2502 11.9999Z" fill="black"/>
<path fill-rule="evenodd" clip-rule="evenodd" d="M8.77475 19.0081C8.77475 20.7961 10.2217 22.2501 11.9997 22.2501C13.7777 22.2501 15.2247 20.7961 15.2247 19.0081C15.2247 18.5851 15.5047 18.3781 15.6257 18.3081C15.7447 18.2411 16.0557 18.1061 16.4117 18.3111C17.1567 18.7451 18.0248 18.8591 18.8568 18.6371C19.6908 18.4131 20.3878 17.8751 20.8188 17.1231C21.7058 15.5771 21.1758 13.5921 19.6388 12.6981C19.2798 12.4881 19.2407 12.1401 19.2407 12.0001C19.2407 11.8601 19.2798 11.5121 19.6397 11.3031C21.1758 10.4101 21.7048 8.42512 20.8188 6.87712C20.3868 6.12412 19.6898 5.58712 18.8557 5.36312C18.0238 5.14312 17.1567 5.25812 16.4127 5.69012C16.0567 5.89512 15.7427 5.75912 15.6257 5.69112C15.5047 5.62212 15.2247 5.41512 15.2247 4.99212C15.2247 3.20412 13.7777 1.75012 11.9997 1.75012C10.2217 1.75012 8.77475 3.20412 8.77475 4.99212C8.77475 5.41512 8.49475 5.62212 8.37375 5.69112C8.25575 5.76212 7.94275 5.89612 7.58875 5.69012C6.84375 5.25812 5.97675 5.14312 5.14375 5.36312C4.30975 5.58712 3.61275 6.12412 3.18075 6.87712C2.29475 8.42512 2.82375 10.4101 4.35975 11.3031C4.71975 11.5121 4.75775 11.8601 4.75775 12.0001C4.75775 12.1391 4.71975 12.4881 4.35975 12.6971C2.82375 13.5921 2.29475 15.5771 3.18075 17.1231C3.61175 17.8751 4.30875 18.4121 5.14275 18.6371C5.97375 18.8591 6.84275 18.7441 7.58975 18.3101C7.94275 18.1051 8.25575 18.2411 8.37375 18.3081C8.49375 18.3781 8.77475 18.5851 8.77475 19.0081ZM9.12075 17.0091C8.76475 16.8041 8.37375 16.7011 7.98275 16.7011C7.58775 16.7011 7.19375 16.8051 6.83475 17.0141C6.43675 17.2441 5.97375 17.3061 5.53175 17.1871C5.08675 17.0681 4.71275 16.7801 4.48275 16.3771C4.00375 15.5441 4.28775 14.4741 5.11475 13.9941C5.83075 13.5771 6.25775 12.8311 6.25775 12.0001C6.25775 11.1691 5.83075 10.4231 5.11375 10.0061C4.28875 9.52512 4.00475 8.45712 4.48175 7.62312C4.71275 7.22012 5.08675 6.93112 5.53175 6.81212C5.97575 6.69612 6.43775 6.75712 6.83575 6.98712C7.55075 7.40312 8.40575 7.40412 9.12175 6.99212C9.84375 6.57612 10.2747 5.82912 10.2747 4.99212C10.2747 4.03112 11.0487 3.25012 11.9997 3.25012C12.9507 3.25012 13.7247 4.03112 13.7247 4.99212C13.7247 5.82812 14.1547 6.57512 14.8767 6.99112C15.5937 7.40412 16.4487 7.40112 17.1657 6.98712C17.5627 6.75712 18.0237 6.69412 18.4677 6.81212C18.9137 6.93112 19.2868 7.22012 19.5177 7.62312C19.9948 8.45712 19.7118 9.52612 18.8848 10.0061C18.1688 10.4231 17.7417 11.1691 17.7417 12.0001C17.7417 12.8311 18.1688 13.5771 18.8848 13.9941C19.7118 14.4741 19.9958 15.5441 19.5177 16.3771C19.2868 16.7801 18.9137 17.0681 18.4677 17.1871C18.0247 17.3061 17.5627 17.2441 17.1657 17.0141C16.4507 16.5981 15.5947 16.5971 14.8777 17.0091C14.1557 17.4241 13.7247 18.1721 13.7247 19.0081C13.7247 19.9691 12.9507 20.7501 11.9997 20.7501C11.0487 20.7501 10.2747 19.9691 10.2747 19.0081C10.2747 18.1711 9.84375 17.4241 9.12075 17.0091Z" fill="black"/>
</svg>
