<svg width="25" height="24" viewBox="0 0 25 24" fill="none" xmlns="http://www.w3.org/2000/svg">
<path fill-rule="evenodd" clip-rule="evenodd" d="M12.2499 15.0001C10.5959 15.0001 9.24989 13.6541 9.24989 12.0001C9.24989 10.3461 10.5959 9.00012 12.2499 9.00012C13.9039 9.00012 15.2499 10.3461 15.2499 12.0001C15.2499 13.6541 13.9039 15.0001 12.2499 15.0001ZM19.7639 12.9141C19.4369 12.7231 19.2409 12.3821 19.2409 12.0001C19.2409 11.6181 19.4369 11.2771 19.7649 11.0871C21.1829 10.2621 21.6699 8.43012 20.8519 7.00112C20.4529 6.30712 19.8099 5.81112 19.0399 5.60412C18.2739 5.40112 17.4739 5.50712 16.7879 5.90612C16.4639 6.09612 16.0769 6.09612 15.7509 5.90712C15.4209 5.71812 15.2239 5.37512 15.2239 4.99212C15.2239 3.34312 13.8899 2.00012 12.2499 2.00012C10.6089 2.00012 9.27489 3.34312 9.27489 4.99212C9.27489 5.37612 9.07789 5.71812 8.74789 5.90812C8.42389 6.09412 8.03689 6.09612 7.71289 5.90612C7.02489 5.50712 6.22589 5.39912 5.45789 5.60512C4.68789 5.81212 4.04589 6.30812 3.64789 7.00212C2.82989 8.43112 3.31789 10.2631 4.73589 11.0861C5.06289 11.2761 5.25789 11.6181 5.25789 12.0001C5.25789 12.3821 5.06289 12.7241 4.73589 12.9131C3.31789 13.7381 2.82989 15.5711 3.64789 16.9991C4.04589 17.6921 4.68789 18.1881 5.45689 18.3951C6.22389 18.6001 7.02489 18.4941 7.71289 18.0951C8.03589 17.9051 8.42289 17.9051 8.74789 18.0921C9.07789 18.2821 9.27489 18.6241 9.27489 19.0081C9.27489 20.6571 10.6089 22.0001 12.2499 22.0001C13.8899 22.0001 15.2239 20.6571 15.2239 19.0081C15.2239 18.6251 15.4209 18.2821 15.7509 18.0931C16.0759 17.9051 16.4629 17.9051 16.7879 18.0951C17.4749 18.4941 18.2749 18.5981 19.0399 18.3961C19.8099 18.1891 20.4529 17.6931 20.8519 16.9991C21.6699 15.5711 21.1829 13.7391 19.7639 12.9141Z" fill="black"/>
</svg>
