<svg width="24" height="24" viewBox="0 0 24 24" fill="none" xmlns="http://www.w3.org/2000/svg">
<path fill-rule="evenodd" clip-rule="evenodd" d="M9.58012 12.0259H9.61012C12.4301 12.0259 14.7241 9.73187 14.7241 6.91087C14.7241 4.09087 12.4301 1.79688 9.61012 1.79688C6.79112 1.79688 4.49712 4.09088 4.49712 6.90788C4.49112 8.27087 5.01712 9.55287 5.97712 10.5199C6.93612 11.4849 8.21512 12.0209 9.58012 12.0259ZM5.99712 6.91088C5.99712 4.91788 7.61812 3.29688 9.61012 3.29688C11.6031 3.29688 13.2241 4.91788 13.2241 6.91088C13.2241 8.90388 11.6031 10.5259 9.61012 10.5259H9.58312C8.62112 10.5219 7.71812 10.1449 7.04212 9.46187C6.36412 8.77987 5.99312 7.87488 5.99712 6.91088Z" fill="black"/>
<path fill-rule="evenodd" clip-rule="evenodd" d="M2.05078 18.6743C2.05078 22.2033 7.54278 22.2033 9.60978 22.2033C11.4788 22.2033 17.1688 22.2033 17.1688 18.6543C17.1688 15.9673 13.7078 13.6963 9.60978 13.6963C5.51178 13.6963 2.05078 15.9753 2.05078 18.6743ZM3.55078 18.6743C3.55078 17.0323 6.14178 15.1963 9.60978 15.1963C13.0778 15.1963 15.6688 17.0213 15.6688 18.6543C15.6688 20.3473 12.3738 20.7033 9.60978 20.7033C5.58878 20.7033 3.55078 20.0203 3.55078 18.6743Z" fill="black"/>
<path d="M16.8532 10.8261C16.5212 10.8261 16.2182 10.6051 16.1282 10.2691C16.0222 9.86909 16.2592 9.45909 16.6602 9.35109C17.7672 9.05509 18.5402 8.04809 18.5402 6.90009C18.5412 5.70009 17.6902 4.65409 16.5162 4.41309C16.1102 4.33009 15.8482 3.93309 15.9322 3.52809C16.0142 3.12209 16.4102 2.85609 16.8172 2.94409C18.6862 3.32809 20.0412 4.99209 20.0412 6.90009C20.0412 8.72509 18.8092 10.3301 17.0462 10.8011C16.9822 10.8181 16.9162 10.8261 16.8532 10.8261Z" fill="black"/>
<path d="M18.9932 18.0196C19.0742 18.3646 19.3822 18.5976 19.7222 18.5976C19.7792 18.5976 19.8372 18.5916 19.8952 18.5776C21.0842 18.2976 21.9492 17.2986 21.9492 16.2016C21.9492 14.4746 19.8342 12.9016 17.5122 12.9016C17.0982 12.9016 16.7622 13.2376 16.7622 13.6516C16.7622 14.0656 17.0982 14.4016 17.5122 14.4016C19.1332 14.4016 20.4492 15.4916 20.4492 16.2016C20.4492 16.5486 20.1132 16.9856 19.5512 17.1176C19.1482 17.2116 18.8982 17.6166 18.9932 18.0196Z" fill="black"/>
</svg>
