<svg width="25" height="25" viewBox="0 0 25 25" fill="none" xmlns="http://www.w3.org/2000/svg">
<path fill-rule="evenodd" clip-rule="evenodd" d="M16.5199 11.1998L13.5899 14.9798C13.4699 15.1398 13.2899 15.2398 13.0899 15.2598C12.8899 15.2898 12.6899 15.2298 12.5299 15.1098L9.70989 12.8998L7.17989 16.1898C7.03989 16.3798 6.80989 16.4798 6.58989 16.4798C6.42989 16.4798 6.26989 16.4298 6.12989 16.3198C5.79989 16.0698 5.73989 15.5998 5.98989 15.2698L8.98989 11.3798C9.10989 11.2198 9.28989 11.1198 9.48989 11.0998C9.68989 11.0698 9.88989 11.1298 10.0499 11.2498L12.8699 13.4598L15.3299 10.2798C15.5899 9.94983 16.0599 9.88983 16.3899 10.1498C16.7099 10.3998 16.7699 10.8698 16.5199 11.1998ZM21.6199 8.80983C21.0899 9.05983 20.4899 9.19983 19.8699 9.19983C17.5299 9.19983 15.6199 7.28983 15.6199 4.94983C15.6199 4.30983 15.7599 3.70983 16.0199 3.16983C14.9199 2.93983 13.6399 2.82983 12.1599 2.82983C4.94989 2.82983 2.38989 5.37983 2.38989 12.5998C2.38989 19.8198 4.94989 22.3698 12.1599 22.3698C19.3799 22.3698 21.9399 19.8198 21.9399 12.5998C21.9399 11.1498 21.8399 9.88983 21.6199 8.80983Z" fill="black"/>
<path fill-rule="evenodd" clip-rule="evenodd" d="M19.8699 7.19983C20.2899 7.19983 20.6899 7.07983 21.0199 6.87983C21.6699 6.48983 22.1099 5.76983 22.1099 4.94983C22.1099 3.70983 21.1099 2.69983 19.8699 2.69983C19.0599 2.69983 18.3499 3.12983 17.9499 3.77983C17.7399 4.11983 17.6199 4.51983 17.6199 4.94983C17.6199 6.18983 18.6299 7.19983 19.8699 7.19983Z" fill="black"/>
</svg>
