<svg width="24" height="24" viewBox="0 0 24 24" fill="none" xmlns="http://www.w3.org/2000/svg">
<path fill-rule="evenodd" clip-rule="evenodd" d="M4 9.68425C4 6.5383 8.22464 3.69102 9.07066 3.15288C9.60476 2.81341 10.2669 3.05814 10.5504 3.70023C10.8295 4.33968 10.6292 5.13834 10.0951 5.47912C8.87803 6.25541 7.58109 7.39222 6.83029 8.3685H18.9055C19.5108 8.3685 20 8.95664 20 9.68425C20 10.4119 19.5108 11 18.9055 11H4V9.68425ZM20 14.3157C20 17.4617 15.7754 20.309 14.9293 20.8471C14.3952 21.1866 13.7331 20.9419 13.4496 20.2998C13.1705 19.6603 13.3708 18.8617 13.9049 18.5209C15.122 17.7446 16.4189 16.6078 17.1697 15.6315H5.09447C4.48923 15.6315 4 15.0434 4 14.3157C4 13.5881 4.48923 13 5.09447 13H20V14.3157Z" fill="black"/>
</svg>
