<svg width="24" height="24" viewBox="0 0 24 24" fill="none" xmlns="http://www.w3.org/2000/svg">
<path fill-rule="evenodd" clip-rule="evenodd" d="M8.32874 16.1355C8.32874 15.7213 8.66452 15.3855 9.07874 15.3855H14.8937C15.3079 15.3855 15.6437 15.7213 15.6437 16.1355C15.6437 16.5497 15.3079 16.8855 14.8937 16.8855H9.07874C8.66452 16.8855 8.32874 16.5497 8.32874 16.1355Z" fill="black"/>
<path fill-rule="evenodd" clip-rule="evenodd" d="M6.80988 5.97777C6.39734 6.35991 6.02692 6.68835 5.69765 6.97857C5.65117 7.01953 5.60566 7.05961 5.56107 7.09887C5.28216 7.34447 5.03927 7.55836 4.8211 7.75975C4.31579 8.2262 3.9966 8.57839 3.77087 8.97228C3.31837 9.76188 3.15002 10.8691 3.15002 13.7131C3.15002 15.7692 3.27309 17.2452 3.55118 18.3154C3.82418 19.366 4.23114 19.968 4.77024 20.355C5.33328 20.7591 6.13707 20.9998 7.34747 21.1246C8.55668 21.2492 10.065 21.2501 11.986 21.2501C13.907 21.2501 15.4154 21.2492 16.6246 21.1246C17.835 20.9998 18.6388 20.7591 19.2018 20.355C19.7409 19.968 20.1479 19.366 20.4209 18.3154C20.699 17.2452 20.822 15.7692 20.822 13.7131C20.822 10.869 20.6539 9.76178 20.2016 8.97216C19.976 8.5783 19.6569 8.22613 19.1517 7.75971C18.9334 7.55813 18.6903 7.34403 18.4111 7.09813C18.3668 7.0591 18.3215 7.01926 18.2753 6.97855C17.9461 6.68833 17.5757 6.35988 17.1631 5.97774C16.9189 5.78053 16.6659 5.56715 16.4037 5.346C15.8326 4.86426 15.2177 4.34566 14.5544 3.87707C13.5695 3.1813 12.6775 2.75012 11.958 2.75012C11.2409 2.75012 10.3611 3.18134 9.38915 3.87815C8.75487 4.3329 8.17464 4.82712 7.62945 5.29149C7.34778 5.5314 7.07547 5.76335 6.80988 5.97777ZM8.51515 2.65909C9.51548 1.94191 10.7322 1.25012 11.958 1.25012C13.1805 1.25012 14.4071 1.93645 15.4199 2.65193C16.1359 3.15772 16.8441 3.75461 17.4371 4.25428C17.69 4.46741 17.9219 4.66286 18.1244 4.826C18.138 4.83694 18.1512 4.84834 18.164 4.8602C18.57 5.23674 18.9354 5.56083 19.2672 5.8533C19.3122 5.89296 19.3567 5.93217 19.4008 5.97095C19.6787 6.21565 19.9369 6.44302 20.1693 6.6576C20.7085 7.15549 21.1624 7.63169 21.5032 8.22659C22.1836 9.41446 22.322 10.9262 22.322 13.7131C22.322 15.8006 22.2002 17.4321 21.8727 18.6927C21.54 19.9728 20.9805 20.9246 20.0765 21.5735C19.1964 22.2053 18.0804 22.4825 16.7784 22.6167C15.4837 22.7501 13.8994 22.7501 12.0232 22.7501H11.9489C10.0726 22.7501 8.48833 22.7501 7.19367 22.6167C5.89167 22.4825 4.77565 22.2053 3.89555 21.5735C2.99153 20.9246 2.43206 19.9728 2.0994 18.6927C1.77184 17.4321 1.65002 15.8006 1.65002 13.7131C1.65002 10.9262 1.78868 9.41436 2.46943 8.22646C2.81033 7.6316 3.26432 7.15542 3.80367 6.65755C4.03585 6.44323 4.29378 6.21612 4.57133 5.97173C4.61567 5.9327 4.66051 5.89322 4.70582 5.85328C5.03764 5.56081 5.40302 5.23674 5.80904 4.8602C5.82186 4.84831 5.8351 4.83686 5.84873 4.82589C6.06085 4.65514 6.30841 4.44466 6.57995 4.21379C7.15394 3.72578 7.83507 3.14667 8.51515 2.65909Z" fill="black"/>
</svg>
