<svg width="24" height="24" viewBox="0 0 24 24" fill="none" xmlns="http://www.w3.org/2000/svg">
<path fill-rule="evenodd" clip-rule="evenodd" d="M8.76025 10.7106C8.76025 8.9153 10.2151 7.46008 12.0097 7.46008C13.8052 7.46008 15.2603 8.91511 15.2603 10.7106C15.2603 12.5053 13.805 13.9601 12.0097 13.9601C10.2153 13.9601 8.76025 12.5051 8.76025 10.7106ZM12.0097 8.96008C11.0439 8.96008 10.2603 9.74333 10.2603 10.7106C10.2603 11.6766 11.0437 12.4601 12.0097 12.4601C12.977 12.4601 13.7603 11.6764 13.7603 10.7106C13.7603 9.74353 12.9768 8.96008 12.0097 8.96008Z" fill="black"/>
<path fill-rule="evenodd" clip-rule="evenodd" d="M11.9995 3.75012C8.28063 3.75012 5.25 6.80742 5.25 10.5988C5.25 13.0727 6.31773 15.5148 7.75334 17.3469C8.46835 18.2593 9.25791 18.9985 10.0196 19.5036C10.7928 20.0164 11.4786 20.2501 11.9995 20.2501C12.5207 20.2501 13.2068 20.0163 13.98 19.5036C14.7419 18.9984 15.5315 18.2593 16.2466 17.3468C17.6823 15.5148 18.75 13.0727 18.75 10.5988C18.75 6.80755 15.7185 3.75012 11.9995 3.75012ZM3.75 10.5988C3.75 5.99775 7.43357 2.25012 11.9995 2.25012C16.5653 2.25012 20.25 5.99762 20.25 10.5988C20.25 13.4848 19.017 16.2434 17.4272 18.2721C16.6295 19.29 15.7252 20.1462 14.809 20.7537C13.9041 21.3538 12.9278 21.7501 11.9995 21.7501C11.0714 21.7501 10.0953 21.3537 9.19058 20.7537C8.27446 20.1461 7.37027 19.2899 6.57265 18.272C4.98301 16.2434 3.75 13.4848 3.75 10.5988Z" fill="black"/>
</svg>
