<svg width="24" height="24" viewBox="0 0 24 24" fill="none" xmlns="http://www.w3.org/2000/svg">
<path d="M5.84434 9.53351C6.20034 9.95451 9.39134 13.6525 12.0113 13.6525C14.6343 13.6525 17.7933 9.95151 18.1443 9.52951C18.4093 9.21251 18.3663 8.73951 18.0493 8.47451C17.7293 8.20951 17.2583 8.25251 16.9923 8.56951C15.8363 9.95451 13.4613 12.1525 12.0113 12.1525C10.5593 12.1525 8.16234 9.95251 6.99134 8.56651C6.72434 8.24951 6.25134 8.20951 5.93534 8.47651C5.61834 8.74351 5.57834 9.21651 5.84434 9.53351Z" fill="black"/>
<path fill-rule="evenodd" clip-rule="evenodd" d="M1.72656 12.0001C1.72656 19.2851 4.41556 21.8671 11.9996 21.8671C19.5846 21.8671 22.2736 19.2851 22.2736 12.0001C22.2736 4.71506 19.5846 2.13306 11.9996 2.13306C4.41556 2.13306 1.72656 4.71506 1.72656 12.0001ZM3.22656 12.0001C3.22656 5.58806 5.27656 3.63306 11.9996 3.63306C18.7236 3.63306 20.7736 5.58806 20.7736 12.0001C20.7736 18.4121 18.7236 20.3671 11.9996 20.3671C5.27656 20.3671 3.22656 18.4121 3.22656 12.0001Z" fill="black"/>
</svg>
