<svg width="24" height="24" viewBox="0 0 24 24" fill="none" xmlns="http://www.w3.org/2000/svg">
<path fill-rule="evenodd" clip-rule="evenodd" d="M16.7124 9.27218C17.0398 9.52588 17.0996 9.99698 16.8459 10.3244L13.9169 14.1044C13.7945 14.2623 13.6143 14.3648 13.4161 14.3894C13.2178 14.4139 13.018 14.3583 12.8609 14.235L10.0426 12.0225L7.51139 15.3114C7.25876 15.6397 6.78786 15.701 6.45961 15.4484C6.13135 15.1958 6.07004 14.7249 6.32267 14.3966L9.31567 10.5076C9.43775 10.349 9.61816 10.2457 9.81677 10.2208C10.0154 10.196 10.2157 10.2515 10.3731 10.3751L13.1935 12.589L15.6602 9.40565C15.9139 9.07822 16.385 9.01847 16.7124 9.27218Z" fill="black"/>
<path fill-rule="evenodd" clip-rule="evenodd" d="M19.6671 3.1001C19.0193 3.1001 18.4951 3.62431 18.4951 4.2721C18.4951 4.91914 19.0196 5.4441 19.6671 5.4441C20.3146 5.4441 20.8391 4.91914 20.8391 4.2721C20.8391 3.62431 20.3149 3.1001 19.6671 3.1001ZM16.9951 4.2721C16.9951 2.79588 18.1909 1.6001 19.6671 1.6001C21.1433 1.6001 22.3391 2.79588 22.3391 4.2721C22.3391 5.74706 21.1436 6.9441 19.6671 6.9441C18.1906 6.9441 16.9951 5.74706 16.9951 4.2721Z" fill="black"/>
<path fill-rule="evenodd" clip-rule="evenodd" d="M5.00342 5.60706C3.78045 6.83003 3.19946 8.8762 3.19946 12.3031C3.19946 15.7305 3.78046 17.7767 5.0034 18.9995C6.22635 20.2223 8.2725 20.8031 11.6995 20.8031C15.127 20.8031 17.1731 20.2223 18.3959 18.9995C19.6187 17.7767 20.1995 15.7306 20.1995 12.3031C20.1995 11.1974 20.1397 10.228 20.0136 9.37934C19.9527 8.96963 20.2355 8.58813 20.6452 8.52725C21.0549 8.46636 21.4364 8.74914 21.4973 9.15886C21.6372 10.1002 21.6995 11.1468 21.6995 12.3031C21.6995 15.8136 21.1242 18.3925 19.4565 20.0602C17.7889 21.7279 15.21 22.3031 11.6995 22.3031C8.18943 22.3031 5.61058 21.7279 3.94278 20.0602C2.27497 18.3925 1.69946 15.8137 1.69946 12.3031C1.69946 8.793 2.27498 6.21417 3.94276 4.5464C5.61054 2.87862 8.18936 2.3031 11.6995 2.3031C12.8345 2.3031 13.8631 2.36333 14.7902 2.49788C15.2001 2.55737 15.4842 2.9379 15.4247 3.34782C15.3652 3.75774 14.9847 4.04181 14.5747 3.98233C13.7379 3.86087 12.7844 3.8031 11.6995 3.8031C8.27256 3.8031 6.22639 4.38408 5.00342 5.60706Z" fill="black"/>
</svg>
