<svg width="25" height="24" viewBox="0 0 25 24" fill="none" xmlns="http://www.w3.org/2000/svg">
<path fill-rule="evenodd" clip-rule="evenodd" d="M15.1581 16.8851H9.34306C8.92906 16.8851 8.59306 16.5491 8.59306 16.1351C8.59306 15.7211 8.92906 15.3851 9.34306 15.3851H15.1581C15.5721 15.3851 15.9081 15.7211 15.9081 16.1351C15.9081 16.5491 15.5721 16.8851 15.1581 16.8851ZM19.4991 6.15812C19.1361 5.83812 18.7231 5.47612 18.2311 5.02112C18.0081 4.84112 17.7641 4.63512 17.5051 4.41712C16.0451 3.18612 14.0451 1.50012 12.2221 1.50012C10.4201 1.50012 8.54906 3.09212 7.04606 4.37112C6.76806 4.60712 6.50806 4.82912 6.24306 5.04412C5.77706 5.47612 5.36406 5.83912 5.00006 6.16012C2.61306 8.26112 2.16406 8.81212 2.16406 13.7131C2.16406 22.5001 4.70506 22.5001 12.2501 22.5001C19.7941 22.5001 22.3361 22.5001 22.3361 13.7131C22.3361 8.81112 21.8871 8.26012 19.4991 6.15812Z" fill="black"/>
</svg>
