<svg width="24" height="24" viewBox="0 0 24 24" fill="none" xmlns="http://www.w3.org/2000/svg">
<path fill-rule="evenodd" clip-rule="evenodd" d="M12.9489 10.7413C13.4039 11.1953 14.5259 11.3893 15.8019 11.3893C17.7459 11.3893 20.0489 10.9383 20.8989 10.2703C21.6759 9.65832 21.9829 8.74232 21.7629 7.69132C21.3099 5.52732 18.5589 2.87732 16.1029 2.23932C14.8399 1.91032 13.7659 2.16432 13.0789 2.95432C12.1109 4.07032 11.8319 9.62132 12.9489 10.7413ZM14.0209 9.69332C13.5319 9.03632 13.6799 4.68332 14.2159 3.93332C14.5179 3.59032 15.0249 3.50932 15.7249 3.69032C17.6109 4.18132 19.9589 6.39532 20.2949 7.99832C20.4279 8.63632 20.1919 8.91732 19.9709 9.09132C19.0059 9.85132 14.6589 10.1533 14.0209 9.69332Z" fill="black"/>
<path fill-rule="evenodd" clip-rule="evenodd" d="M2.16748 13.4502C2.16748 18.1102 5.95848 21.9012 10.6185 21.9012C15.1715 21.9012 17.8195 18.4392 18.6675 16.3932C19.2265 15.0432 19.2155 13.9372 18.6355 13.3572C17.9155 12.6372 16.6329 12.6767 15.1485 12.7224L15.1235 12.7232C13.7655 12.7672 12.2275 12.8162 11.6145 12.2022C10.9365 11.5242 10.8805 9.92918 10.8355 8.64718L10.8354 8.64513C10.7894 7.3381 10.7532 6.30688 10.1745 5.72918C9.50648 5.06118 8.41648 4.97018 7.18448 5.48118C4.75248 6.48818 2.16748 9.62419 2.16748 13.4502ZM7.75848 6.86718C8.10448 6.72318 8.42348 6.65118 8.67348 6.65118C8.86748 6.65118 9.02048 6.69518 9.10948 6.78418C9.2762 6.99983 9.31236 8.01979 9.33636 8.69681L9.33648 8.70018C9.39048 10.2442 9.45848 12.1672 10.5535 13.2632C11.6235 14.3332 13.4991 14.2745 15.1577 14.2226L15.1904 14.2216C16.0243 14.1956 17.2597 14.157 17.5575 14.4022C17.6315 14.5952 17.5835 15.4822 16.7905 16.7722C16.2685 17.6242 14.2775 20.4012 10.6185 20.4012C6.78548 20.4012 3.66748 17.2832 3.66748 13.4502C3.66748 9.88918 6.17648 7.52218 7.75848 6.86718Z" fill="black"/>
</svg>
