<svg width="25" height="24" viewBox="0 0 25 24" fill="none" xmlns="http://www.w3.org/2000/svg">
<path fill-rule="evenodd" clip-rule="evenodd" d="M21.7684 7.7429C21.3314 5.6569 18.6694 3.0999 16.2894 2.4809C15.1224 2.1759 14.1384 2.4039 13.5184 3.1179C12.6574 4.1099 12.3724 9.5599 13.3764 10.5639C13.7864 10.9739 14.8214 11.1479 16.0134 11.1479C17.9034 11.1479 20.1854 10.7099 20.9944 10.0739C21.6934 9.5239 21.9684 8.6959 21.7684 7.7429Z" fill="black"/>
<path fill-rule="evenodd" clip-rule="evenodd" d="M15.3817 12.9724C13.9727 13.0184 12.3777 13.0684 11.6877 12.3784C10.9407 11.6304 10.8827 9.98142 10.8357 8.65542C10.7917 7.40342 10.7567 6.41342 10.2487 5.90642C9.65572 5.31342 8.66472 5.24342 7.53072 5.71142C5.17372 6.68842 2.66772 9.73342 2.66772 13.4514C2.66772 17.9724 6.34672 21.6514 10.8687 21.6514C15.2897 21.6514 17.8627 18.2854 18.6867 16.2974C19.2057 15.0454 19.2137 14.0374 18.7087 13.5344C18.0617 12.8864 16.8177 12.9284 15.3817 12.9724Z" fill="black"/>
</svg>
