<svg width="24" height="24" viewBox="0 0 24 24" fill="none" xmlns="http://www.w3.org/2000/svg">
<path fill-rule="evenodd" clip-rule="evenodd" d="M11.9612 13.1389C12.3754 13.1389 12.7112 13.4747 12.7112 13.8889V16.5169C12.7112 16.9311 12.3754 17.2669 11.9612 17.2669C11.547 17.2669 11.2112 16.9311 11.2112 16.5169V13.8889C11.2112 13.4747 11.547 13.1389 11.9612 13.1389Z" fill="black"/>
<path fill-rule="evenodd" clip-rule="evenodd" d="M2.21816 11.0478C2.4557 10.7084 2.92334 10.6259 3.26268 10.8634L3.27447 10.8717C5.56289 12.2766 8.60547 13.1418 11.9566 13.1418C15.3056 13.1418 18.355 12.2777 20.6437 10.8747L20.6497 10.8704C20.9852 10.6275 21.4541 10.7025 21.697 11.038C21.94 11.3734 21.865 11.8424 21.5295 12.0853L21.5005 12.1063C21.4854 12.1172 21.4698 12.1276 21.454 12.1374C18.9012 13.7099 15.5641 14.6418 11.9566 14.6418C8.34869 14.6418 5.0206 13.7098 2.4691 12.1373C2.45666 12.1297 2.44445 12.1216 2.43249 12.1133L2.40249 12.0923C2.06315 11.8547 1.98062 11.3871 2.21816 11.0478Z" fill="black"/>
<path fill-rule="evenodd" clip-rule="evenodd" d="M5.26404 7.50242C4.07205 8.56396 3.50024 10.3339 3.50024 13.3508C3.50024 16.3677 4.07205 18.1377 5.26404 19.1992C6.48242 20.2843 8.53513 20.8038 11.9612 20.8038C15.3879 20.8038 17.4406 20.2843 18.6588 19.1993C19.8507 18.1377 20.4222 16.3678 20.4222 13.3508C20.4222 10.3338 19.8507 8.56392 18.6588 7.5024C17.4406 6.41738 15.3879 5.89783 11.9612 5.89783C8.53513 5.89783 6.48242 6.41737 5.26404 7.50242ZM4.26645 6.38224C5.92657 4.90379 8.47936 4.39783 11.9612 4.39783C15.4436 4.39783 17.9964 4.90377 19.6564 6.38226C21.3428 7.88424 21.9222 10.2158 21.9222 13.3508C21.9222 16.4858 21.3428 18.8174 19.6564 20.3194C17.9964 21.7979 15.4436 22.3038 11.9612 22.3038C8.47936 22.3038 5.92657 21.7979 4.26645 20.3194C2.57994 18.8175 2.00024 16.4859 2.00024 13.3508C2.00024 10.2157 2.57994 7.88419 4.26645 6.38224Z" fill="black"/>
<path fill-rule="evenodd" clip-rule="evenodd" d="M7.94873 4.73944C7.94873 3.13741 9.13523 1.70044 10.7587 1.70044H13.1637C14.7872 1.70044 15.9737 3.13741 15.9737 4.73944V5.36944C15.9737 5.78365 15.6379 6.11944 15.2237 6.11944C14.8095 6.11944 14.4737 5.78365 14.4737 5.36944V4.73944C14.4737 3.81347 13.8142 3.20044 13.1637 3.20044H10.7587C10.1082 3.20044 9.44873 3.81347 9.44873 4.73944V5.36944C9.44873 5.78365 9.11294 6.11944 8.69873 6.11944C8.28452 6.11944 7.94873 5.78365 7.94873 5.36944V4.73944Z" fill="black"/>
</svg>
